<svg width="132" height="40" fill="none" xmlns="http://www.w3.org/2000/svg"><g clip-path="url(#a)"><path d="M121.488 0H10.518c-.405 0-.805 0-1.208.002-.338.002-.673.008-1.014.013-.74.008-1.48.067-2.21.177a7.891 7.891 0 0 0-2.097.627 7.116 7.116 0 0 0-1.785 1.178 6.325 6.325 0 0 0-1.3 1.621 6.18 6.18 0 0 0-.69 1.904 11.813 11.813 0 0 0-.197 2.002c-.01.306-.012.614-.017.92V31.56c.005.31.006.611.017.922.008.67.075 1.34.197 2.002.122.663.354 1.305.69 1.904A6.277 6.277 0 0 0 2.204 38a6.935 6.935 0 0 0 1.785 1.179 7.93 7.93 0 0 0 2.097.63c.73.11 1.47.169 2.21.177.341.007.676.011 1.014.011.403.002.803.002 1.208.002h110.97c.397 0 .8 0 1.196-.002.336 0 .681-.004 1.017-.01a16.091 16.091 0 0 0 2.206-.177 8.052 8.052 0 0 0 2.105-.631A6.938 6.938 0 0 0 129.796 38a6.461 6.461 0 0 0 1.303-1.614c.334-.6.564-1.242.683-1.904.123-.662.192-1.331.205-2.002.004-.311.004-.612.004-.922.009-.364.009-.725.009-1.094V9.536c0-.366 0-.73-.009-1.092 0-.306 0-.614-.004-.92a12.253 12.253 0 0 0-.205-2.002 6.19 6.19 0 0 0-.683-1.904c-.68-1.203-1.76-2.182-3.087-2.8a8.013 8.013 0 0 0-2.105-.627c-.729-.11-1.467-.169-2.206-.176-.336-.005-.681-.011-1.017-.013C122.288 0 121.885 0 121.488 0Z" fill="#A6A6A6"/><path d="M9.315 39.125c-.336 0-.664-.004-.997-.01-.691-.009-1.38-.063-2.062-.164a6.966 6.966 0 0 1-1.828-.548 5.976 5.976 0 0 1-1.54-1.016 5.382 5.382 0 0 1-1.725-3.054 11.286 11.286 0 0 1-.184-1.875c-.007-.21-.016-.913-.016-.913v-23.1s.01-.692.016-.895c.009-.628.07-1.253.183-1.872a5.43 5.43 0 0 1 1.72-3.06 6.15 6.15 0 0 1 1.546-1.023 6.895 6.895 0 0 1 1.824-.544A15.28 15.28 0 0 1 8.32.887l.996-.012h113.363l1.007.013c.687.007 1.372.061 2.05.162a7.032 7.032 0 0 1 1.843.548c1.145.535 2.076 1.381 2.664 2.42.287.52.486 1.076.59 1.649.115.624.179 1.255.192 1.887.003.283.003.588.003.89.009.375.009.732.009 1.092v20.929c0 .363 0 .718-.009 1.075 0 .325 0 .623-.004.93a11.55 11.55 0 0 1-.189 1.853 5.365 5.365 0 0 1-.595 1.67c-.291.513-.669.98-1.121 1.386-.45.414-.971.759-1.543 1.022-.58.266-1.2.452-1.84.55-.682.101-1.371.156-2.062.163-.323.007-.662.011-.99.011l-1.196.002-112.173-.002Z" fill="#000"/><path d="M30.839 20.301a4.938 4.938 0 0 1 2.363-4.152 5.075 5.075 0 0 0-4.002-2.157c-1.684-.177-3.317 1.004-4.175 1.004-.875 0-2.196-.987-3.619-.958a5.34 5.34 0 0 0-4.485 2.728c-1.94 3.349-.493 8.27 1.365 10.976.93 1.326 2.016 2.806 3.437 2.753 1.391-.057 1.91-.884 3.59-.884 1.663 0 2.15.884 3.6.851 1.493-.024 2.434-1.331 3.33-2.669a10.948 10.948 0 0 0 1.523-3.092 4.793 4.793 0 0 1-2.127-1.76 4.772 4.772 0 0 1-.8-2.64ZM28.1 12.211a4.863 4.863 0 0 0 1.117-3.49 4.976 4.976 0 0 0-3.216 1.66 4.633 4.633 0 0 0-1.147 3.36 4.12 4.12 0 0 0 3.245-1.53ZM48.422 27.14h-4.747l-1.14 3.356h-2.01l4.495-12.418h2.09l4.495 12.418H49.56l-1.139-3.356Zm-4.256-1.55h3.763l-1.855-5.446h-.052l-1.856 5.447ZM61.315 25.97c0 2.813-1.51 4.62-3.789 4.62a3.084 3.084 0 0 1-2.857-1.584h-.043v4.485h-1.863V21.442h1.804v1.506h.034a3.216 3.216 0 0 1 2.89-1.6c2.305 0 3.824 1.816 3.824 4.622Zm-1.915 0c0-1.833-.95-3.039-2.4-3.039-1.424 0-2.382 1.23-2.382 3.038 0 1.825.958 3.046 2.382 3.046 1.45 0 2.4-1.196 2.4-3.046ZM71.308 25.97c0 2.813-1.51 4.62-3.789 4.62a3.086 3.086 0 0 1-2.856-1.584h-.043v4.485h-1.864V21.442h1.804v1.506h.034a3.216 3.216 0 0 1 2.89-1.6c2.305 0 3.824 1.816 3.824 4.621Zm-1.915 0c0-1.834-.95-3.039-2.4-3.039-1.424 0-2.381 1.23-2.381 3.038 0 1.825.957 3.046 2.381 3.046 1.45 0 2.4-1.196 2.4-3.046ZM77.913 27.036c.138 1.232 1.337 2.04 2.977 2.04 1.57 0 2.7-.808 2.7-1.919 0-.964-.681-1.54-2.295-1.936l-1.614-.388c-2.286-.55-3.348-1.617-3.348-3.348 0-2.142 1.872-3.614 4.531-3.614 2.632 0 4.435 1.472 4.496 3.614H83.48c-.113-1.239-1.14-1.987-2.641-1.987-1.501 0-2.529.757-2.529 1.858 0 .878.656 1.395 2.261 1.79l1.372.336c2.555.603 3.617 1.626 3.617 3.443 0 2.323-1.856 3.778-4.807 3.778-2.762 0-4.627-1.42-4.747-3.667h1.908ZM89.58 19.3v2.142h1.727v1.472H89.58v4.991c0 .776.346 1.137 1.105 1.137.205-.004.41-.018.613-.043v1.463a5.125 5.125 0 0 1-1.035.086c-1.838 0-2.555-.689-2.555-2.444v-5.19h-1.32v-1.472h1.32V19.3h1.872ZM92.307 25.97c0-2.849 1.682-4.639 4.306-4.639 2.632 0 4.307 1.79 4.307 4.639 0 2.856-1.666 4.638-4.307 4.638-2.64 0-4.306-1.782-4.306-4.638Zm6.714 0c0-1.954-.898-3.108-2.408-3.108-1.51 0-2.407 1.162-2.407 3.108 0 1.962.897 3.106 2.407 3.106s2.408-1.144 2.408-3.106ZM102.457 21.442h1.777v1.541h.044a2.16 2.16 0 0 1 2.183-1.636c.215 0 .429.023.639.07v1.738a2.61 2.61 0 0 0-.837-.112 1.886 1.886 0 0 0-1.452.596 1.868 1.868 0 0 0-.49 1.487v5.37h-1.864v-9.054ZM115.692 27.837c-.251 1.643-1.856 2.771-3.91 2.771-2.641 0-4.28-1.764-4.28-4.595 0-2.84 1.648-4.682 4.202-4.682 2.512 0 4.092 1.72 4.092 4.466v.637h-6.413v.112a2.353 2.353 0 0 0 1.463 2.391c.31.127.644.186.98.173a2.059 2.059 0 0 0 2.096-1.273h1.77Zm-6.3-2.702h4.539a2.167 2.167 0 0 0-.61-1.634 2.186 2.186 0 0 0-1.617-.664 2.307 2.307 0 0 0-1.636.668 2.29 2.29 0 0 0-.676 1.63ZM41.726 8.731c.43-.028.861.031 1.263.173.401.141.763.362 1.06.645.296.284.52.624.653.995.134.371.175.765.121 1.152 0 1.906-1.136 3.002-3.097 3.002H39.35V8.731h2.377Zm-1.355 5.123h1.24c.308.017.615-.029.9-.133.286-.105.542-.266.75-.471a1.84 1.84 0 0 0 .453-.718c.09-.266.113-.548.069-.824a1.713 1.713 0 0 0-.077-.819 1.847 1.847 0 0 0-.454-.711 2.092 2.092 0 0 0-.745-.468 2.268 2.268 0 0 0-.895-.135H40.37v4.28ZM45.978 12.445a1.947 1.947 0 0 1 .11-.877c.103-.282.27-.541.491-.761.22-.22.49-.396.79-.516a2.561 2.561 0 0 1 1.903 0c.3.12.57.296.79.516.22.22.388.48.491.761.104.282.141.58.11.877.032.296-.005.595-.108.877a2.1 2.1 0 0 1-.492.763c-.22.22-.49.397-.79.517a2.56 2.56 0 0 1-1.906 0 2.36 2.36 0 0 1-.79-.517c-.22-.22-.388-.48-.49-.763a1.947 1.947 0 0 1-.11-.877Zm3.676 0c0-.976-.483-1.547-1.332-1.547-.852 0-1.332.57-1.332 1.547 0 .984.48 1.55 1.332 1.55.849 0 1.332-.57 1.332-1.55ZM56.89 14.698h-1.017l-1.027-3.316h-.077l-1.023 3.316H52.74l-1.369-4.503h.994l.89 3.436h.074l1.02-3.436h.941l1.021 3.436h.078l.885-3.436h.98l-1.363 4.503ZM59.405 10.195h.944v.715h.073a1.4 1.4 0 0 1 .6-.616c.265-.144.574-.209.883-.186.241-.017.484.016.71.097.225.08.428.205.593.366.165.16.288.353.36.563.072.21.091.431.056.649v2.915h-.98v-2.692c0-.724-.347-1.084-1.072-1.084a1.246 1.246 0 0 0-.48.075 1.15 1.15 0 0 0-.403.249 1.02 1.02 0 0 0-.25.379.942.942 0 0 0-.053.438v2.635h-.98v-4.503ZM65.186 8.438h.98v6.26h-.98v-6.26ZM67.529 12.445a1.947 1.947 0 0 1 .11-.877 2.1 2.1 0 0 1 .49-.761c.221-.22.49-.396.79-.516a2.561 2.561 0 0 1 1.904 0c.3.12.57.296.79.516.22.22.388.48.491.761.104.282.141.58.11.877.032.296-.005.595-.108.878-.104.282-.271.542-.492.762-.22.22-.49.397-.79.517a2.562 2.562 0 0 1-1.906 0c-.3-.12-.57-.296-.79-.517-.22-.22-.388-.48-.49-.762a1.947 1.947 0 0 1-.11-.878Zm3.676 0c0-.976-.483-1.547-1.332-1.547-.852 0-1.332.57-1.332 1.547 0 .984.48 1.55 1.332 1.55.849 0 1.332-.57 1.332-1.55ZM73.246 13.425c0-.81.666-1.278 1.848-1.344l1.345-.07v-.39c0-.475-.347-.744-1.017-.744-.547 0-.926.183-1.035.5h-.95c.101-.773.904-1.269 2.03-1.269 1.246 0 1.948.562 1.948 1.514v3.076h-.944v-.633h-.077a1.621 1.621 0 0 1-.64.537 1.815 1.815 0 0 1-.852.17c-.209.02-.42 0-.619-.059a1.544 1.544 0 0 1-.539-.281 1.375 1.375 0 0 1-.367-.456 1.255 1.255 0 0 1-.13-.551Zm3.193-.385v-.376l-1.213.07c-.684.041-.994.252-.994.65 0 .405.388.64.92.64.157.015.315 0 .465-.042.15-.042.29-.11.41-.203.12-.091.218-.204.288-.331a.985.985 0 0 0 .124-.408ZM78.704 12.445c0-1.423.807-2.324 2.062-2.324.31-.013.618.054.888.194s.49.347.635.596h.073V8.438h.98v6.26h-.939v-.711h-.077a1.655 1.655 0 0 1-.66.59 1.867 1.867 0 0 1-.9.195c-1.264 0-2.062-.9-2.062-2.327Zm1.013 0c0 .955.496 1.53 1.327 1.53.826 0 1.337-.583 1.337-1.526 0-.939-.516-1.53-1.337-1.53-.825 0-1.327.579-1.327 1.526ZM87.398 12.445a1.947 1.947 0 0 1 .11-.877c.103-.282.27-.541.49-.761.221-.22.49-.396.79-.516a2.56 2.56 0 0 1 1.904 0c.3.12.569.296.79.516.22.22.388.48.491.761.104.282.14.58.11.877.032.296-.005.595-.109.877a2.1 2.1 0 0 1-.49.763c-.221.22-.49.397-.79.517a2.56 2.56 0 0 1-1.907 0 2.36 2.36 0 0 1-.79-.517 2.1 2.1 0 0 1-.49-.763 1.947 1.947 0 0 1-.11-.877Zm3.676 0c0-.976-.483-1.547-1.332-1.547-.852 0-1.332.57-1.332 1.547 0 .984.48 1.55 1.332 1.55.849 0 1.332-.57 1.332-1.55ZM93.398 10.195h.944v.715h.073a1.4 1.4 0 0 1 .6-.616c.266-.144.574-.209.883-.186a1.77 1.77 0 0 1 .71.097c.225.08.428.205.593.366.166.16.289.353.36.563.072.21.091.431.056.649v2.915h-.98v-2.692c0-.724-.347-1.084-1.072-1.084a1.246 1.246 0 0 0-.48.075 1.15 1.15 0 0 0-.402.249 1.018 1.018 0 0 0-.251.379.942.942 0 0 0-.053.438v2.635h-.98v-4.503ZM103.156 9.074v1.142h1.076v.748h-1.076v2.316c0 .472.214.678.702.678.125 0 .25-.007.374-.02v.74a3.528 3.528 0 0 1-.533.045c-1.091 0-1.525-.348-1.525-1.216v-2.543h-.788v-.748h.788V9.074h.982ZM105.571 8.438h.972v2.481h.078c.13-.26.345-.476.616-.62.271-.145.585-.21.898-.187.24-.012.481.025.704.107.223.082.424.208.587.368.163.16.286.351.358.56.073.208.094.428.062.644v2.907h-.982V12.01c0-.719-.369-1.083-1.062-1.083a1.266 1.266 0 0 0-.496.061 1.177 1.177 0 0 0-.422.246c-.119.109-.21.24-.268.384a.966.966 0 0 0-.064.45v2.63h-.981v-6.26ZM115.562 13.482a1.853 1.853 0 0 1-.815 1.006 2.182 2.182 0 0 1-1.338.297 2.461 2.461 0 0 1-.953-.166 2.262 2.262 0 0 1-.787-.514 2 2 0 0 1-.477-.767 1.867 1.867 0 0 1-.077-.877 1.878 1.878 0 0 1 .079-.88 2.03 2.03 0 0 1 .474-.77c.217-.223.485-.401.784-.522.3-.122.625-.183.953-.18 1.382 0 2.216.855 2.216 2.27v.31h-3.507v.05c-.016.165.007.33.067.488.059.156.155.3.279.422.125.121.276.218.444.283.168.065.349.098.532.096a1.3 1.3 0 0 0 .683-.11 1.15 1.15 0 0 0 .499-.435h.944Zm-3.448-1.45h2.508a.986.986 0 0 0-.066-.446 1.075 1.075 0 0 0-.26-.383 1.204 1.204 0 0 0-.409-.255 1.303 1.303 0 0 0-.487-.083 1.384 1.384 0 0 0-.495.085 1.29 1.29 0 0 0-.42.252 1.15 1.15 0 0 0-.278.38 1.043 1.043 0 0 0-.093.45Z" fill="#fff"/></g><defs><clipPath id="a"><path fill="#fff" d="M0 0h132v40H0z"/></clipPath></defs></svg>