<svg width="132" height="40" fill="none" xmlns="http://www.w3.org/2000/svg"><path fill-rule="evenodd" clip-rule="evenodd" d="M127.109 40H4.891C2.195 40 0 37.746 0 35V5c0-2.756 2.195-5 4.89-5H127.11C129.802 0 132 2.244 132 5v30c0 2.746-2.198 5-4.891 5Z" fill="#000"/><path fill-rule="evenodd" clip-rule="evenodd" d="M127.109.8c2.261 0 4.112 1.888 4.112 4.2v30c0 2.312-1.839 4.2-4.112 4.2H4.891C2.63 39.2.779 37.312.779 35V5C.78 2.688 2.618.8 4.891.8h122.218Zm0-.8H4.891C2.195 0 0 2.254 0 5v30c0 2.756 2.195 5 4.89 5H127.11c2.693 0 4.891-2.244 4.891-5V5c0-2.746-2.198-5-4.891-5Z" fill="#A6A6A6"/><path d="M69.538 13.232c-.882 0-1.625-.317-2.212-.94a3.248 3.248 0 0 1-.894-2.294c0-.91.301-1.681.894-2.292.585-.624 1.328-.94 2.21-.94.871 0 1.614.316 2.212.94.592.63.893 1.401.893 2.292-.01.912-.31 1.683-.894 2.291-.585.629-1.328.943-2.21.943Zm-26.229 0c-.862 0-1.61-.312-2.222-.928-.607-.613-.915-1.389-.915-2.304 0-.915.308-1.69.915-2.304.6-.616 1.348-.928 2.222-.928.428 0 .843.087 1.241.264.391.173.71.407.945.694l.058.072-.658.663-.068-.082c-.372-.454-.87-.676-1.527-.676-.588 0-1.1.215-1.523.639-.425.426-.641.985-.641 1.66 0 .676.216 1.235.641 1.661.422.424.935.639 1.523.639.626 0 1.153-.215 1.563-.639.243-.249.394-.598.447-1.04H43.2v-.932h3.016l.012.085c.022.157.044.319.044.468 0 .86-.253 1.556-.753 2.07-.568.609-1.311.918-2.21.918Zm34.874-.132h-.93l-2.849-4.681.024.843v3.835h-.93V6.9h1.061l.03.048 2.678 4.409-.024-.84V6.9h.94v6.2Zm-15.634 0h-.942V7.833h-1.635V6.9h4.209v.933h-1.634V13.1h.002Zm-3.344 0h-.94V6.9h.94v6.2Zm-5.282 0h-.94V7.833H51.35V6.9h4.208v.933h-1.635V13.1Zm-3.169-.01h-3.603V6.9h3.603v.933h-2.66v1.7h2.4v.923h-2.4v1.701h2.66v.933Zm17.261-1.44c.42.432.93.65 1.523.65a2 2 0 0 0 1.522-.65c.413-.423.622-.98.622-1.65 0-.67-.209-1.23-.62-1.65a2.056 2.056 0 0 0-1.522-.65c-.61 0-1.107.213-1.52.65-.413.423-.622.98-.622 1.65 0 .67.207 1.23.617 1.65Z" fill="#fff"/><path fill-rule="evenodd" clip-rule="evenodd" d="M66.345 21.755c-2.295 0-4.155 1.788-4.155 4.255 0 2.444 1.872 4.254 4.155 4.254 2.294 0 4.154-1.8 4.154-4.254 0-2.467-1.86-4.255-4.154-4.255Zm0 6.823c-1.256 0-2.337-1.067-2.337-2.578 0-1.534 1.084-2.579 2.337-2.579 1.255 0 2.336 1.045 2.336 2.579.002 1.521-1.08 2.578-2.336 2.578Zm-9.065-6.823c-2.295 0-4.155 1.788-4.155 4.255 0 2.444 1.872 4.254 4.155 4.254 2.294 0 4.154-1.8 4.154-4.254 0-2.467-1.862-4.255-4.154-4.255Zm0 6.823c-1.256 0-2.337-1.067-2.337-2.578 0-1.534 1.084-2.579 2.337-2.579 1.255 0 2.336 1.045 2.336 2.579 0 1.521-1.081 2.578-2.336 2.578Zm-10.787-5.523v1.8H50.7c-.129 1.01-.454 1.756-.952 2.267-.617.633-1.568 1.322-3.246 1.322-2.587 0-4.61-2.145-4.61-4.8 0-2.657 2.023-4.801 4.61-4.801 1.396 0 2.413.566 3.169 1.289l1.243-1.277c-1.05-1.032-2.446-1.823-4.403-1.823-3.547 0-6.525 2.968-6.525 6.601 0 3.644 2.975 6.601 6.525 6.601 1.916 0 3.354-.643 4.49-1.855 1.159-1.19 1.525-2.868 1.525-4.222 0-.422-.031-.8-.097-1.122h-5.94c.003-.003.003.02.003.02Zm44.12 1.401c-.347-.955-1.396-2.71-3.547-2.71-2.132 0-3.905 1.723-3.905 4.254 0 2.389 1.753 4.254 4.111 4.254 1.894 0 2.997-1.19 3.45-1.888l-1.405-.967c-.466.71-1.115 1.177-2.035 1.177-.93 0-1.581-.434-2.013-1.29l5.539-2.356c0 .003-.195-.474-.195-.474Zm-5.648 1.422c-.044-1.644 1.243-2.48 2.164-2.48.726 0 1.33.367 1.537.901l-3.7 1.579ZM80.465 30h1.82V17.5h-1.82V30Zm-2.986-7.3h-.066c-.41-.5-1.19-.955-2.185-.955-2.067 0-3.97 1.868-3.97 4.267 0 2.39 1.893 4.235 3.97 4.235.983 0 1.775-.457 2.185-.968h.066v.611c0 1.623-.846 2.499-2.208 2.499-1.114 0-1.806-.823-2.088-1.511l-1.581.678c.454 1.122 1.666 2.511 3.667 2.511 2.132 0 3.939-1.29 3.939-4.434V22h-1.72v.7h-.01Zm-2.089 5.878c-1.255 0-2.304-1.077-2.304-2.566 0-1.501 1.049-2.588 2.304-2.588 1.243 0 2.208 1.1 2.208 2.588.012 1.49-.962 2.566-2.208 2.566Zm23.74-11.077h-4.35V30h1.82v-4.733h2.532c2.013 0 3.992-1.5 3.992-3.878 0-2.38-1.971-3.888-3.994-3.888Zm.053 6.02h-2.586v-4.29h2.586c1.362 0 2.132 1.155 2.132 2.145 0 .98-.779 2.145-2.132 2.145Zm11.231-1.788c-1.321 0-2.683.601-3.246 1.91l1.612.688c.347-.688.983-.922 1.656-.922.942 0 1.894.578 1.916 1.61v.133c-.325-.19-1.039-.479-1.894-.479-1.741 0-3.507.978-3.507 2.81 0 1.679 1.428 2.756 3.019 2.756 1.221 0 1.894-.566 2.314-1.222h.066v.968h1.753v-4.788c0-2.23-1.612-3.464-3.689-3.464Zm-.228 6.845c-.595 0-1.428-.299-1.428-1.067 0-.968 1.039-1.334 1.926-1.334.801 0 1.18.177 1.656.421-.131 1.123-1.054 1.97-2.154 1.98ZM120.499 22l-2.088 5.421h-.066L116.182 22h-1.958l3.247 7.578-1.85 4.212h1.894L122.51 22h-2.011Zm-16.372 8h1.819V17.5h-1.819V30Z" fill="#fff"/><path fill-rule="evenodd" clip-rule="evenodd" d="M10.16 7.534c-.281.312-.444.788-.444 1.412v22.112c0 .623.163 1.1.454 1.399l.075.067L22.31 20.135v-.277L10.235 7.467l-.075.067Z" fill="url(#a)"/><path fill-rule="evenodd" clip-rule="evenodd" d="m26.323 24.276-4.024-4.132v-.29l4.024-4.131.087.054 4.76 2.779c1.362.788 1.362 2.09 0 2.887l-4.76 2.778-.087.055Z" fill="url(#b)"/><path fill-rule="evenodd" clip-rule="evenodd" d="M26.41 24.222 22.3 20 10.16 32.466c.444.49 1.19.544 2.023.068l14.228-8.312Z" fill="url(#c)"/><path fill-rule="evenodd" clip-rule="evenodd" d="M26.41 15.778 12.184 7.48c-.833-.489-1.58-.421-2.023.068L22.3 20l4.11-4.222Z" fill="url(#d)"/><path opacity=".2" fill-rule="evenodd" clip-rule="evenodd" d="m26.323 24.132-14.13 8.244c-.79.467-1.494.434-1.948.01l-.075.078.075.067c.454.421 1.159.456 1.948-.01l14.228-8.3-.098-.09Z" fill="#000"/><path opacity=".12" fill-rule="evenodd" clip-rule="evenodd" d="m31.17 21.3-4.859 2.832.088.09 4.76-2.778c.682-.4 1.017-.923 1.017-1.444-.041.479-.389.933-1.005 1.3Z" fill="#000"/><path opacity=".25" fill-rule="evenodd" clip-rule="evenodd" d="M12.183 7.623 31.17 18.701c.617.356.964.822 1.018 1.299 0-.521-.335-1.045-1.018-1.444L12.183 7.479c-1.362-.8-2.467-.133-2.467 1.466v.145c0-1.601 1.105-2.257 2.467-1.467Z" fill="#fff"/><defs><linearGradient id="a" x1="21.227" y1="8.707" x2="1.836" y2="13.738" gradientUnits="userSpaceOnUse"><stop stop-color="#00A0FF"/><stop offset=".007" stop-color="#00A1FF"/><stop offset=".26" stop-color="#00BEFF"/><stop offset=".512" stop-color="#00D2FF"/><stop offset=".76" stop-color="#00DFFF"/><stop offset="1" stop-color="#00E3FF"/></linearGradient><linearGradient id="b" x1="32.946" y1="20" x2="9.384" y2="20" gradientUnits="userSpaceOnUse"><stop stop-color="#FFE000"/><stop offset=".409" stop-color="#FFBD00"/><stop offset=".775" stop-color="orange"/><stop offset="1" stop-color="#FF9C00"/></linearGradient><linearGradient id="c" x1="24.175" y1="22.297" x2="8.044" y2="48.735" gradientUnits="userSpaceOnUse"><stop stop-color="#FF3A44"/><stop offset="1" stop-color="#C31162"/></linearGradient><linearGradient id="d" x1="7.103" y1=".179" x2="14.3" y2="11.987" gradientUnits="userSpaceOnUse"><stop stop-color="#32A071"/><stop offset=".069" stop-color="#2DA771"/><stop offset=".476" stop-color="#15CF74"/><stop offset=".801" stop-color="#06E775"/><stop offset="1" stop-color="#00F076"/></linearGradient></defs></svg>