<svg id="visual" viewBox="0 0 900 450" width="900" height="450" xmlns="http://www.w3.org/2000/svg" xmlns:xlink="http://www.w3.org/1999/xlink" version="1.1"><path d="M0 27L21.5 27.3C43 27.7 86 28.3 128.8 29.8C171.7 31.3 214.3 33.7 257.2 32.8C300 32 343 28 385.8 27C428.7 26 471.3 28 514.2 30.2C557 32.3 600 34.7 642.8 35.7C685.7 36.7 728.3 36.3 771.2 35C814 33.7 857 31.3 878.5 30.2L900 29L900 0L878.5 0C857 0 814 0 771.2 0C728.3 0 685.7 0 642.8 0C600 0 557 0 514.2 0C471.3 0 428.7 0 385.8 0C343 0 300 0 257.2 0C214.3 0 171.7 0 128.8 0C86 0 43 0 21.5 0L0 0Z" fill="#f25ea3"></path><path d="M0 26L21.5 25.2C43 24.3 86 22.7 128.8 22.7C171.7 22.7 214.3 24.3 257.2 25.2C300 26 343 26 385.8 25.5C428.7 25 471.3 24 514.2 23.8C557 23.7 600 24.3 642.8 24C685.7 23.7 728.3 22.3 771.2 23C814 23.7 857 26.3 878.5 27.7L900 29L900 0L878.5 0C857 0 814 0 771.2 0C728.3 0 685.7 0 642.8 0C600 0 557 0 514.2 0C471.3 0 428.7 0 385.8 0C343 0 300 0 257.2 0C214.3 0 171.7 0 128.8 0C86 0 43 0 21.5 0L0 0Z" fill="#c351a0"></path><path d="M0 19L21.5 18.8C43 18.7 86 18.3 128.8 17.7C171.7 17 214.3 16 257.2 15.3C300 14.7 343 14.3 385.8 15.2C428.7 16 471.3 18 514.2 19.7C557 21.3 600 22.7 642.8 22.7C685.7 22.7 728.3 21.3 771.2 19.7C814 18 857 16 878.5 15L900 14L900 0L878.5 0C857 0 814 0 771.2 0C728.3 0 685.7 0 642.8 0C600 0 557 0 514.2 0C471.3 0 428.7 0 385.8 0C343 0 300 0 257.2 0C214.3 0 171.7 0 128.8 0C86 0 43 0 21.5 0L0 0Z" fill="#924797"></path><path d="M0 9L21.5 10.2C43 11.3 86 13.7 128.8 14.3C171.7 15 214.3 14 257.2 13C300 12 343 11 385.8 10.7C428.7 10.3 471.3 10.7 514.2 10.7C557 10.7 600 10.3 642.8 10C685.7 9.7 728.3 9.3 771.2 10C814 10.7 857 12.3 878.5 13.2L900 14L900 0L878.5 0C857 0 814 0 771.2 0C728.3 0 685.7 0 642.8 0C600 0 557 0 514.2 0C471.3 0 428.7 0 385.8 0C343 0 300 0 257.2 0C214.3 0 171.7 0 128.8 0C86 0 43 0 21.5 0L0 0Z" fill="#613d88"></path><path d="M0 6L21.5 5.7C43 5.3 86 4.7 128.8 4.3C171.7 4 214.3 4 257.2 4.5C300 5 343 6 385.8 6.7C428.7 7.3 471.3 7.7 514.2 7.8C557 8 600 8 642.8 8C685.7 8 728.3 8 771.2 8C814 8 857 8 878.5 8L900 8L900 0L878.5 0C857 0 814 0 771.2 0C728.3 0 685.7 0 642.8 0C600 0 557 0 514.2 0C471.3 0 428.7 0 385.8 0C343 0 300 0 257.2 0C214.3 0 171.7 0 128.8 0C86 0 43 0 21.5 0L0 0Z" fill="#2f3273"></path></svg>